<?xml version="1.0" encoding="utf-8"?>
<!-- Generator: Adobe Illustrator 17.0.0, SVG Export Plug-In . SVG Version: 6.00 Build 0)  -->
<!DOCTYPE svg PUBLIC "-//W3C//DTD SVG 1.1//EN" "http://www.w3.org/Graphics/SVG/1.1/DTD/svg11.dtd">
<svg version="1.1" id="Layer_1" xmlns="http://www.w3.org/2000/svg" xmlns:xlink="http://www.w3.org/1999/xlink" x="0px" y="0px"
	 width="30px" height="30px" viewBox="0 0 30 30" enable-background="new 0 0 30 30" xml:space="preserve">
<g>
	<path fill="#ECF0F1" d="M0,4.984v22.5c0,1.381,1.119,2.5,2.5,2.5L5,30L30,4.984H0z"/>
	<rect x="2.5" y="4.984" fill="#D7DDE1" width="2.5" height="25.016"/>
	<path fill="#ECF0F1" d="M5,0v27.484c0,1.375-1.111,2.49-2.484,2.5L2.5,30h25l0.017-0.016c1.367-0.01,2.473-1.115,2.481-2.482
		L30,27.5V0H5z"/>
	<rect x="7" y="26" fill="#C3C9CD" width="21" height="2"/>
	<rect x="7" y="22" fill="#C3C9CD" width="21" height="2"/>
	<rect x="19" y="18" fill="#C3C9CD" width="9" height="2"/>
	<rect x="7" y="10" fill="#E67E22" width="10" height="10"/>
	<rect x="19" y="14" fill="#C3C9CD" width="9" height="2"/>
	<rect x="19" y="10" fill="#C3C9CD" width="9" height="2"/>
	<rect x="7" y="2" fill="#D35400" width="21" height="6"/>
</g>
</svg>
